HIERARCHY
ROOT ui
{
	 OFFSET 0 0 0
	 CHANNELS 3 XPosition YPosition Z Position
	 EndSite
	 {
	 OFFSET 0 -1 0
	 }
}
ROOT li
{
	 OFFSET 0 0 0
	 CHANNELS 3 XPosition YPosition Z Position
	 EndSite
	 {
	 OFFSET 0 -1 0
	 }
}
ROOT ul
{
	 OFFSET 0 0 0
	 CHANNELS 3 XPosition YPosition Z Position
	 EndSite
	 {
	 OFFSET 0 -1 0
	 }
}
ROOT ll
{
	 OFFSET 0 0 0
	 CHANNELS 3 XPosition YPosition Z Position
	 EndSite
	 {
	 OFFSET 0 -1 0
	 }
}
ROOT tt
{
	 OFFSET 0 0 0
	 CHANNELS 3 XPosition YPosition Z Position
	 EndSite
	 {
	 OFFSET 0 -1 0
	 }
}
ROOT tb
{
	 OFFSET 0 0 0
	 CHANNELS 3 XPosition YPosition Z Position
	 EndSite
	 {
	 OFFSET 0 -1 0
	 }
}
ROOT td
{
	 OFFSET 0 0 0
	 CHANNELS 3 XPosition YPosition Z Position
	 EndSite
	 {
	 OFFSET 0 -1 0
	 }
}
ROOT v
{
	 OFFSET 0 0 0
	 CHANNELS 3 XPosition YPosition Z Position
	 EndSite
	 {
	 OFFSET 0 -1 0
	 }
}
ROOT bn
{
	 OFFSET 0 0 0
	 CHANNELS 3 XPosition YPosition Z Position
	 EndSite
	 {
	 OFFSET 0 -1 0
	 }
}
MOTION
Frames: 32
Frame Time: 0.002
-0.0013085290193557738	0.0015810509920120238	0		0.4553314208984375	-2.35949365234375	0		-0.8955734252929688	0.37512530517578124	0		-0.427981689453125	-2.84416162109375	0		1.7630601806640624	-0.44717169189453126	0		3.273149658203125	-0.06158151626586914	0		4.5046572265625	0.04757236862182617	0		5.97847509765625	0.5179454345703125	0		-0.38268389892578125	5.87797802734375	0		
-0.001133707046508789	0.0013253949880599975	0		0.4533525085449219	-2.361748046875	0		-0.8953783569335938	0.37491815185546873	0		-0.37119866943359375	-2.86312939453125	0		1.758939453125	-0.46846954345703123	0		3.25354248046875	-0.04475758743286133	0		4.50075732421875	0.041124576568603514	0		5.981380859375	0.5030103149414062	0		-0.39631851196289064	5.8679248046875	0		
-9.90378975868225E-4	0.0011248159408569335	0		0.44725396728515626	-2.368899169921875	0		-0.8992756958007813	0.3698272705078125	0		-0.4014442443847656	-2.878915283203125	0		1.754793212890625	-0.488729248046875	0		3.251436279296875	-0.06413915252685547	0		4.50090283203125	0.04063549423217774	0		5.971388671875	0.4815522155761719	0		-0.2625245971679688	5.88802001953125	0		
-8.779399991035461E-4	9.801380038261414E-4	0		0.44516796875	-2.37105029296875	0		-0.9110047607421875	0.3799039001464844	0		-0.3658319091796875	-2.901499267578125	0		1.7557261962890625	-0.5000138244628907	0		3.23655810546875	-0.06332461547851563	0		4.50591357421875	0.032098556518554686	0		5.9692197265625	0.45985528564453126	0		-0.3811304016113281	5.8774501953125	0		
-7.955330014228821E-4	8.91897976398468E-4	0		0.4170623779296875	-2.37080615234375	0		-0.9699525146484375	0.37566476440429686	0		-0.4040055236816406	-2.903058349609375	0		1.75862353515625	-0.5112815551757812	0		3.267330322265625	-0.08707827758789062	0		4.49907763671875	0.037740039825439456	0		5.9729384765625	0.4760536499023437	0		-0.24533815002441406	5.89461572265625	0		
0.009389219284057617	0.010727025985717774	0		0.47458740234375	-2.395639404296875	0		-0.8857682495117187	0.3826048583984375	0		-0.36341928100585935	-2.91959619140625	0		1.7694461669921875	-0.525610107421875	0		3.25586669921875	-0.05023773193359375	0		4.5083056640625	0.0501980094909668	0		5.97870263671875	0.4783741455078125	0		-0.37902679443359377	5.87638037109375	0		
-7.175359725952148E-4	8.844109773635864E-4	0		0.4423410034179687	-2.399232177734375	0		-0.9056932983398438	0.3839769287109375	0		-0.36395663452148436	-2.941536865234375	0		1.7863675537109376	-0.52997509765625	0		3.2435546875	-0.07535126495361329	0		4.52016015625	0.0366483039855957	0		5.98290625	0.46002084350585937	0		-0.3945663146972656	5.8686533203125	0		
-7.217119932174682E-4	9.625800251960755E-4	0		0.49096734619140625	-2.409853515625	0		-0.8947824096679687	0.37499533081054687	0		-0.3394205322265625	-2.954758056640625	0		1.770447998046875	-0.5198549194335937	0		3.2454892578125	-0.07961161041259765	0		4.5221728515625	0.03726472473144531	0		5.97212060546875	0.4439336242675781	0		-0.2597363586425781	5.88796875	0		
-0.0048091249465942384	-0.0028534688949584963	0		0.46067108154296876	-2.41136669921875	0		-0.899724609375	0.37928042602539064	0		-0.34990768432617186	-2.966458740234375	0		1.7840235595703124	-0.5450874633789062	0		3.236353759765625	-0.08668062591552735	0		4.50523876953125	0.04417640686035156	0		5.9679150390625	0.4605692138671875	0		-0.24504078674316407	5.89893359375	0		
-8.190069794654846E-4	0.0012701259851455688	0		0.5040620422363281	-2.433832275390625	0		-0.8948052368164062	0.37548080444335935	0		-0.367566650390625	-2.98801220703125	0		1.7598529052734375	-0.548760986328125	0		3.2614970703125	-0.07116889953613281	0		4.524150390625	0.0416443862915039	0		5.97205224609375	0.4423971252441406	0		-0.36367947387695315	5.88775830078125	0		
-9.122980237007141E-4	0.0014939850568771362	0		0.47879486083984374	-2.42831640625	0		-0.885751953125	0.38367031860351564	0		-0.24120573425292968	-3.0064921875	0		1.77357958984375	-0.5579054565429687	0		3.23617919921875	-0.08692857360839844	0		4.52223974609375	0.0544394416809082	0		5.9742431640625	0.4624261169433594	0		-0.2288916015625	5.908177734375	0		
-0.0010346239805221558	0.001760874032974243	0		0.501330322265625	-2.435414794921875	0		-0.8949457397460937	0.37615093994140625	0		-0.24773919677734374	-3.01411767578125	0		1.7644434814453125	-0.5546920776367188	0		3.2630869140625	-0.0843592071533203	0		4.5380107421875	0.04603313446044922	0		5.9741572265625	0.4618467712402344	0		-0.36271383666992185	5.88832177734375	0		
-0.0011850270032882691	0.002067682981491089	0		0.4688861083984375	-2.4387119140625	0		-0.9059327392578125	0.385698486328125	0		-0.24646669006347657	-3.033812255859375	0		1.8170240478515625	-0.5702963256835938	0		3.2378330078125	-0.09102681732177734	0		4.53786474609375	0.04589067077636719	0		5.966919921875	0.461589111328125	0		-0.2289743194580078	5.909810546875	0		
-0.005417901992797852	-0.0015326210260391236	0		0.4903712768554688	-2.44572216796875	0		-0.8951998291015625	0.3769764099121094	0		-0.2530366516113281	-3.0403603515625	0		1.7656280517578125	-0.5814138793945313	0		3.260490234375	-0.10231986999511719	0		4.53769189453125	0.04579249572753906	0		5.97513232421875	0.42282608032226565	0		-0.36188632202148435	5.88904248046875	0		
-0.0015643939971923828	0.002786811113357544	0		0.47385345458984374	-2.45116650390625	0		-0.895366455078125	0.3774371948242187	0		-0.24674024963378907	-3.055057861328125	0		1.7901986083984376	-0.5935574340820312	0		3.23995556640625	-0.12496932983398437	0		4.5313955078125	0.03882254409790039	0		5.970126953125	0.44514688110351563	0		-0.211120849609375	5.9173330078125	0		
0.008067827224731445	-0.006949524879455566	0		0.5201417236328125	-2.469471435546875	0		-0.88644384765625	0.3857957763671875	0		-0.35633575439453125	-3.06008154296875	0		1.7719915771484376	-0.58806298828125	0		3.2720849609375	-0.09932109069824219	0		4.54524365234375	0.04360932540893555	0		5.969966796875	0.44488763427734374	0		-0.3440843200683594	5.8986484375	0		
-0.002033987045288086	0.0036213328838348388	0		0.5067345581054687	-2.46490283203125	0		-0.8907113037109375	0.3823621826171875	0		-0.24503712463378907	-3.0732197265625	0		1.82447412109375	-0.603547607421875	0		3.226421142578125	-0.12753744506835937	0		4.537845703125	0.03273429870605469	0		5.96612451171875	0.42752886962890624	0		-0.35994403076171877	5.88933837890625	0		
-0.002296967029571533	0.004072828769683838	0		0.5001599426269532	-2.471407958984375	0		-0.9068682861328125	0.38811941528320315	0		-0.2397945251464844	-3.08883203125	0		1.7760633544921876	-0.6095617065429687	0		3.2680419921875	-0.13496588134765625	0		4.54449853515625	0.02669661521911621	0		5.9615966796875	0.4171904602050781	0		-0.2254000244140625	5.9098916015625	0		
0.0032351369857788084	-0.008542943954467773	0		0.5054906311035157	-2.484064697265625	0		-0.912173583984375	0.3847353515625	0		-0.24644052124023438	-3.09625537109375	0		1.8105859375	-0.6197418823242188	0		3.242652587890625	-0.14140010070800782	0		4.54910498046875	0.018724815368652344	0		5.9685185546875	0.41517913818359375	0		-0.3595028991699219	5.8903193359375	0		
-0.006927626132965088	0.0010852739810943604	0		0.48892193603515627	-2.4893857421875	0		-0.8965126953125	0.3800567932128906	0		-0.33496099853515626	-3.094473388671875	0		1.7711180419921875	-0.6278278198242188	0		3.25847705078125	-0.13239651489257812	0		4.55189892578125	0.024818214416503906	0		5.9611865234375	0.4172071533203125	0		-0.2099134521484375	5.9196611328125	0		
-0.0031756350994110107	0.005522379875183106	0		0.5143948364257812	-2.492303955078125	0		-0.8967921142578125	0.3806150817871094	0		-0.22781674194335938	-3.117529541015625	0		1.7707679443359374	-0.6274564208984375	0		3.234755126953125	-0.15979039001464843	0		4.54850732421875	0.019039243698120118	0		5.9639453125	0.4379948425292969	0		-0.34309735107421874	5.9011162109375	0		
0.0063616461753845215	-0.004119235992431641	0		0.51189306640625	-2.49380322265625	0		-0.91300830078125	0.3864096984863281	0		-0.23138723754882812	-3.120966796875	0		1.80932080078125	-0.6336359252929687	0		3.2645439453125	-0.15193179321289063	0		4.54410546875	0.013315169334411622	0		5.95865576171875	0.42628045654296876	0		-0.20974629211425783	5.9206884765625	0		
-0.003811531066894531	0.006535325050354004	0		0.53432763671875	-2.50066064453125	0		-0.9173666381835938	0.38302850341796874	0		-0.2369550018310547	-3.12537109375	0		1.80896435546875	-0.6332276611328125	0		3.235907958984375	-0.1721898193359375	0		4.5537841796875	0.013424220085144043	0		5.9626005859375	0.40913409423828123	0		-0.20973866271972658	5.921208984375	0		
-0.008193854331970216	0.0031048920154571535	0		0.5058874206542969	-2.4997626953125	0		-0.9277894287109375	0.3757307434082031	0		-0.24048687744140626	-3.12880517578125	0		1.802477783203125	-0.6417144775390625	0		3.23150244140625	-0.17677473449707032	0		4.54915087890625	-0.007221833229064941	0		5.96236865234375	0.40952139282226563	0		-0.20978009033203124	5.92172900390625	0		
0.0013489760160446168	-0.0055353307723999025	0		0.514344482421875	-2.507408935546875	0		-0.92809716796875	0.37627462768554687	0		-0.22907022094726562	-3.1374658203125	0		1.75403076171875	-0.647568603515625	0		3.247829833984375	-0.19964739990234376	0		4.54191748046875	-7.951580286026001E-4	0		5.97274072265625	0.39402810668945315	0		-0.36014462280273435	5.9044677734375	0		
0.008134663581848145	0.0018585560321807862	0		0.4920500183105469	-2.4996015625	0		-0.9142252807617187	0.3885950012207031	0		-0.23626856994628906	-3.121857177734375	0		1.766705322265625	-0.646321533203125	0		3.26490478515625	-0.17251235961914063	0		4.5525986328125	-6.11182987689972E-4	0		5.95447998046875	0.4782430725097656	0		-0.32617984008789064	5.91047314453125	0		
0.004768221855163574	-0.0016104990243911742	0		0.5395217895507812	-2.509841552734375	0		-0.8596324462890625	0.381288330078125	0		-0.2417481231689453	-3.127289794921875	0		1.7505311279296876	-0.6356458129882813	0		3.230076171875	-0.2066040496826172	0		4.55202392578125	-0.018244911193847656	0		5.95458203125	0.4147784423828125	0		-0.32829904174804686	5.91299755859375	0		
0.004474077224731445	-0.0011413459777832031	0		0.4831984558105469	-2.507549072265625	0		-0.9389697265625	0.37895181274414064	0		-0.24313461303710937	-3.128800537109375	0		1.74027001953125	-0.6320631103515625	0		3.22977783203125	-0.20619956970214845	0		4.5517294921875	-0.017866924285888673	0		5.95783154296875	0.39795584106445314	0		-0.2083389892578125	5.92168505859375	0		
1.5089699625968933E-4	-0.0036331219673156737	0		0.53376220703125	-2.515866455078125	0		-0.9392437133789062	0.37941229248046876	0		-0.2464983673095703	-3.131303955078125	0		1.719000244140625	-0.6303243408203125	0		3.237182373046875	-0.22690994262695313	0		4.5491669921875	-0.03644557189941406	0		5.9611025390625	0.38290020751953124	0		-0.3276920166015625	5.9129111328125	0		
-1.116420030593872E-4	-0.0032093410491943358	0		0.48058154296875	-2.50865576171875	0		-0.9395042114257812	0.3798410949707031	0		-0.22100422668457032	-3.146264892578125	0		1.743791259765625	-0.6262830200195313	0		3.2220693359375	-0.21628094482421875	0		4.5499638671875	-0.03206151580810547	0		5.9518994140625	0.4254285888671875	0		-0.3279228515625	5.9133369140625	0		
0.0036872289180755616	1.2695400416851043E-4	0		0.5093253784179688	-2.5096904296875	0		-0.939750732421875	0.380234619140625	0		-0.3578077392578125	-3.115829833984375	0		1.721550048828125	-0.6255536499023437	0		3.235405517578125	-0.24408084106445313	0		4.5486591796875	-0.03563655090332031	0		5.95865380859375	0.3930202026367188	0		-0.3281856079101563	5.91373193359375	0		
-5.848990082740784E-4	-0.002446739912033081	0		0.50912841796875	-2.50931787109375	0		-0.8759755249023438	0.3806358947753906	0		-0.2282201843261719	-3.131403076171875	0		1.7095546875	-0.609989013671875	0		3.22342041015625	-0.22749761962890624	0		4.53743310546875	-0.035050254821777344	0		5.9529453125	0.41993499755859376	0		-0.19418846130371092	5.933095703125	0		
